<mxfile host="65bd71144e">
    <diagram id="QLKmFXb4JYspiKMZCc46" name="第1頁">
        <mxGraphModel dx="1023" dy="738" grid="1" gridSize="8" guides="1" tooltips="1" connect="1" arrows="1" fold="1" page="1" pageScale="1" pageWidth="1169" pageHeight="827" background="none" math="0" shadow="0">
            <root>
                <mxCell id="0"/>
                <mxCell id="1" parent="0"/>
                <mxCell id="102" value="" style="edgeStyle=none;html=1;" edge="1" parent="1" source="2" target="101">
                    <mxGeometry relative="1" as="geometry"/>
                </mxCell>
                <mxCell id="110" value="" style="edgeStyle=none;html=1;fontSize=24;fontColor=#000000;" edge="1" parent="1" source="2" target="109">
                    <mxGeometry relative="1" as="geometry"/>
                </mxCell>
                <mxCell id="111" value="" style="edgeStyle=none;html=1;fontSize=24;fontColor=#000000;" edge="1" parent="1" source="2" target="109">
                    <mxGeometry relative="1" as="geometry"/>
                </mxCell>
                <mxCell id="113" value="" style="edgeStyle=none;html=1;fontSize=24;fontColor=#000000;" edge="1" parent="1" source="2" target="112">
                    <mxGeometry relative="1" as="geometry"/>
                </mxCell>
                <mxCell id="2" value="&lt;font style=&quot;font-size: 24px;&quot; color=&quot;#000000&quot;&gt;index&lt;/font&gt;" style="whiteSpace=wrap;html=1;fillColor=#FFFFFF;fontStyle=1" vertex="1" parent="1">
                    <mxGeometry x="501" y="80" width="174" height="100" as="geometry"/>
                </mxCell>
                <mxCell id="101" value="&lt;font style=&quot;font-size: 24px;&quot; color=&quot;#000000&quot;&gt;portfolio&lt;br&gt;&lt;/font&gt;&lt;span style=&quot;color: rgb(0, 0, 0); font-size: 20px;&quot;&gt;index:list&lt;/span&gt;&lt;font style=&quot;font-size: 24px;&quot; color=&quot;#000000&quot;&gt;&lt;br&gt;&lt;/font&gt;" style="whiteSpace=wrap;html=1;fillColor=#FFFFFF;fontStyle=1" vertex="1" parent="1">
                    <mxGeometry x="206" y="142" width="174" height="100" as="geometry"/>
                </mxCell>
                <mxCell id="117" value="&lt;font style=&quot;background-color: rgb(255, 179, 102); font-size: 16px;&quot;&gt;id&lt;/font&gt;" style="edgeStyle=none;html=1;fontSize=24;fontColor=#000000;exitX=0.5;exitY=1;exitDx=0;exitDy=0;entryX=0.5;entryY=0;entryDx=0;entryDy=0;" edge="1" parent="1" source="101" target="126">
                    <mxGeometry x="-0.0553" y="-4" relative="1" as="geometry">
                        <mxPoint x="398" y="318" as="sourcePoint"/>
                        <mxPoint x="430" y="430" as="targetPoint"/>
                        <mxPoint as="offset"/>
                    </mxGeometry>
                </mxCell>
                <mxCell id="119" value="&lt;span style=&quot;background-color: rgb(255, 179, 102); font-size: 16px;&quot;&gt;serect button&lt;/span&gt;" style="edgeStyle=none;html=1;exitX=0.75;exitY=1;exitDx=0;exitDy=0;entryX=0;entryY=0;entryDx=0;entryDy=0;fontSize=24;fontColor=#000000;" edge="1" parent="1" source="109" target="118">
                    <mxGeometry x="-0.1501" y="7" relative="1" as="geometry">
                        <mxPoint as="offset"/>
                    </mxGeometry>
                </mxCell>
                <mxCell id="109" value="&lt;font style=&quot;&quot; color=&quot;#000000&quot;&gt;&lt;font style=&quot;font-size: 24px;&quot;&gt;blog&lt;/font&gt;&lt;br&gt;&lt;span style=&quot;font-size: 20px;&quot;&gt;index:list&lt;/span&gt;&lt;br&gt;&lt;/font&gt;" style="whiteSpace=wrap;html=1;fillColor=#FFFFFF;fontStyle=1" vertex="1" parent="1">
                    <mxGeometry x="516" y="388" width="174" height="100" as="geometry"/>
                </mxCell>
                <mxCell id="123" value="" style="edgeStyle=none;html=1;labelBackgroundColor=#FFB366;fontSize=24;fontColor=#000000;" edge="1" parent="1" source="112" target="122">
                    <mxGeometry relative="1" as="geometry"/>
                </mxCell>
                <mxCell id="112" value="&lt;font color=&quot;#000000&quot;&gt;&lt;span style=&quot;font-size: 24px;&quot;&gt;resume&lt;/span&gt;&lt;/font&gt;" style="whiteSpace=wrap;html=1;fillColor=#FFFFFF;fontStyle=1" vertex="1" parent="1">
                    <mxGeometry x="790" y="134" width="174" height="100" as="geometry"/>
                </mxCell>
                <mxCell id="114" value="&lt;font color=&quot;#000000&quot;&gt;&lt;span style=&quot;font-size: 16px;&quot;&gt;detail&lt;/span&gt;&lt;/font&gt;" style="rhombus;whiteSpace=wrap;html=1;fillColor=#FFFFFF;fontStyle=1;" vertex="1" parent="1">
                    <mxGeometry x="470" y="590" width="80" height="80" as="geometry"/>
                </mxCell>
                <mxCell id="118" value="&lt;font style=&quot;font-size: 16px;&quot;&gt;edit&lt;/font&gt;" style="rhombus;whiteSpace=wrap;html=1;fillColor=#FFFFFF;fontStyle=1;fontSize=24;fontColor=#000000;" vertex="1" parent="1">
                    <mxGeometry x="675" y="582" width="80" height="80" as="geometry"/>
                </mxCell>
                <mxCell id="122" value="&lt;font style=&quot;font-size: 16px;&quot; color=&quot;#000000&quot;&gt;about me,&lt;br&gt;contact&lt;br&gt;&lt;/font&gt;" style="ellipse;whiteSpace=wrap;html=1;fillColor=#FFFFFF;fontStyle=1;" vertex="1" parent="1">
                    <mxGeometry x="826" y="286" width="102" height="102" as="geometry"/>
                </mxCell>
                <mxCell id="130" style="edgeStyle=none;html=1;exitX=0;exitY=1;exitDx=0;exitDy=0;entryX=0;entryY=0.5;entryDx=0;entryDy=0;labelBackgroundColor=#FFB366;fontSize=16;fontColor=#000000;" edge="1" parent="1" source="126" target="129">
                    <mxGeometry relative="1" as="geometry">
                        <Array as="points">
                            <mxPoint x="230" y="422"/>
                        </Array>
                    </mxGeometry>
                </mxCell>
                <mxCell id="126" value="&lt;font color=&quot;#000000&quot;&gt;&lt;span style=&quot;font-size: 16px;&quot;&gt;detail&lt;/span&gt;&lt;/font&gt;" style="rhombus;whiteSpace=wrap;html=1;fillColor=#FFFFFF;fontStyle=1;" vertex="1" parent="1">
                    <mxGeometry x="238" y="308" width="106" height="106" as="geometry"/>
                </mxCell>
                <mxCell id="127" value="&lt;font style=&quot;background-color: rgb(255, 179, 102); font-size: 16px;&quot;&gt;id&lt;/font&gt;" style="edgeStyle=none;html=1;fontSize=24;fontColor=#000000;entryX=1;entryY=0;entryDx=0;entryDy=0;exitX=0.25;exitY=1;exitDx=0;exitDy=0;" edge="1" parent="1" source="109" target="114">
                    <mxGeometry x="-0.0553" y="-4" relative="1" as="geometry">
                        <mxPoint x="591.379746835443" y="496" as="sourcePoint"/>
                        <mxPoint x="541" y="556" as="targetPoint"/>
                        <mxPoint as="offset"/>
                    </mxGeometry>
                </mxCell>
                <mxCell id="129" value="&lt;font style=&quot;font-size: 16px;&quot; color=&quot;#000000&quot;&gt;link,&lt;br&gt;discription&lt;br&gt;&lt;/font&gt;" style="ellipse;whiteSpace=wrap;html=1;fillColor=#FFFFFF;fontStyle=1;" vertex="1" parent="1">
                    <mxGeometry x="292" y="438" width="88" height="88" as="geometry"/>
                </mxCell>
            </root>
        </mxGraphModel>
    </diagram>
</mxfile>